<mxfile host="app.diagrams.net" modified="2020-10-29T15:41:36.301Z" agent="5.0 (Windows)" etag="kymWJMpNTLBqCnJeBccq" version="13.8.7" type="github">
  <diagram id="baO0POOujpLAagc7hYty" name="Page-1">
    <mxGraphModel dx="1038" dy="587" grid="1" gridSize="10" guides="1" tooltips="1" connect="1" arrows="1" fold="1" page="1" pageScale="1" pageWidth="827" pageHeight="1169" math="0" shadow="0">
      <root>
        <mxCell id="0" />
        <mxCell id="1" parent="0" />
        <mxCell id="afA0k3A63ngMIBR7NG_--1" value="" style="shape=mxgraph.bpmn.shape;html=1;verticalLabelPosition=bottom;labelBackgroundColor=#ffffff;verticalAlign=top;align=center;perimeter=ellipsePerimeter;outlineConnect=0;outline=end;symbol=terminate;shadow=0;" parent="1" vertex="1">
          <mxGeometry x="880" y="160" width="10" height="10" as="geometry" />
        </mxCell>
        <mxCell id="afA0k3A63ngMIBR7NG_--2" style="edgeStyle=orthogonalEdgeStyle;rounded=0;orthogonalLoop=1;jettySize=auto;html=1;" parent="1" source="afA0k3A63ngMIBR7NG_--3" target="afA0k3A63ngMIBR7NG_--19" edge="1">
          <mxGeometry relative="1" as="geometry" />
        </mxCell>
        <mxCell id="afA0k3A63ngMIBR7NG_--3" value="" style="ellipse;whiteSpace=wrap;html=1;aspect=fixed;shadow=0;fillColor=#000000;" parent="1" vertex="1">
          <mxGeometry x="90" y="44.38" width="11.25" height="11.25" as="geometry" />
        </mxCell>
        <mxCell id="afA0k3A63ngMIBR7NG_--4" style="edgeStyle=orthogonalEdgeStyle;rounded=0;orthogonalLoop=1;jettySize=auto;html=1;" parent="1" source="afA0k3A63ngMIBR7NG_--6" target="afA0k3A63ngMIBR7NG_--12" edge="1">
          <mxGeometry relative="1" as="geometry" />
        </mxCell>
        <mxCell id="afA0k3A63ngMIBR7NG_--5" style="edgeStyle=orthogonalEdgeStyle;rounded=0;orthogonalLoop=1;jettySize=auto;html=1;curved=1;" parent="1" source="afA0k3A63ngMIBR7NG_--6" target="afA0k3A63ngMIBR7NG_--8" edge="1">
          <mxGeometry relative="1" as="geometry" />
        </mxCell>
        <mxCell id="afA0k3A63ngMIBR7NG_--6" value="未开始" style="rounded=0;whiteSpace=wrap;html=1;shadow=0;fillColor=#FFFFFF;" parent="1" vertex="1">
          <mxGeometry x="340" y="145" width="120" height="60" as="geometry" />
        </mxCell>
        <mxCell id="afA0k3A63ngMIBR7NG_--7" style="edgeStyle=orthogonalEdgeStyle;rounded=0;orthogonalLoop=1;jettySize=auto;html=1;curved=1;" parent="1" source="afA0k3A63ngMIBR7NG_--8" target="afA0k3A63ngMIBR7NG_--1" edge="1">
          <mxGeometry relative="1" as="geometry" />
        </mxCell>
        <mxCell id="afA0k3A63ngMIBR7NG_--8" value="已关闭" style="rounded=0;whiteSpace=wrap;html=1;shadow=0;fillColor=#FFFFFF;" parent="1" vertex="1">
          <mxGeometry x="690" y="330" width="120" height="60" as="geometry" />
        </mxCell>
        <mxCell id="afA0k3A63ngMIBR7NG_--9" value="商家管理员创建预售活动" style="text;html=1;strokeColor=none;fillColor=none;align=center;verticalAlign=middle;whiteSpace=wrap;rounded=0;shadow=0;" parent="1" vertex="1">
          <mxGeometry x="160" y="15" width="150" height="20" as="geometry" />
        </mxCell>
        <mxCell id="afA0k3A63ngMIBR7NG_--10" style="edgeStyle=orthogonalEdgeStyle;rounded=0;orthogonalLoop=1;jettySize=auto;html=1;curved=1;exitX=0.75;exitY=1;exitDx=0;exitDy=0;" parent="1" source="afA0k3A63ngMIBR7NG_--12" target="afA0k3A63ngMIBR7NG_--8" edge="1">
          <mxGeometry relative="1" as="geometry">
            <Array as="points">
              <mxPoint x="430" y="430" />
              <mxPoint x="750" y="430" />
            </Array>
          </mxGeometry>
        </mxCell>
        <mxCell id="afA0k3A63ngMIBR7NG_--11" style="edgeStyle=orthogonalEdgeStyle;curved=1;rounded=0;orthogonalLoop=1;jettySize=auto;html=1;" parent="1" source="afA0k3A63ngMIBR7NG_--12" target="afA0k3A63ngMIBR7NG_--8" edge="1">
          <mxGeometry relative="1" as="geometry" />
        </mxCell>
        <mxCell id="afA0k3A63ngMIBR7NG_--12" value="进行中" style="rounded=0;whiteSpace=wrap;html=1;shadow=0;fillColor=#FFFFFF;" parent="1" vertex="1">
          <mxGeometry x="340" y="330" width="120" height="60" as="geometry" />
        </mxCell>
        <mxCell id="afA0k3A63ngMIBR7NG_--13" value="开始时间到" style="text;html=1;strokeColor=none;fillColor=none;align=center;verticalAlign=middle;whiteSpace=wrap;rounded=0;shadow=0;" parent="1" vertex="1">
          <mxGeometry x="310" y="250" width="80" height="20" as="geometry" />
        </mxCell>
        <mxCell id="afA0k3A63ngMIBR7NG_--14" value="结束时间到" style="text;html=1;strokeColor=none;fillColor=none;align=center;verticalAlign=middle;whiteSpace=wrap;rounded=0;shadow=0;" parent="1" vertex="1">
          <mxGeometry x="553" y="330" width="70" height="20" as="geometry" />
        </mxCell>
        <mxCell id="afA0k3A63ngMIBR7NG_--15" value="管理员逻辑删除预售活动" style="text;html=1;strokeColor=none;fillColor=none;align=center;verticalAlign=middle;whiteSpace=wrap;rounded=0;shadow=0;" parent="1" vertex="1">
          <mxGeometry x="538" y="150" width="146" height="20" as="geometry" />
        </mxCell>
        <mxCell id="afA0k3A63ngMIBR7NG_--16" value="预售活动结束" style="text;html=1;strokeColor=none;fillColor=none;align=center;verticalAlign=middle;whiteSpace=wrap;rounded=0;shadow=0;" parent="1" vertex="1">
          <mxGeometry x="900" y="270" width="93" height="20" as="geometry" />
        </mxCell>
        <mxCell id="afA0k3A63ngMIBR7NG_--17" value="管理员逻辑删除预售活动" style="text;html=1;strokeColor=none;fillColor=none;align=center;verticalAlign=middle;whiteSpace=wrap;rounded=0;shadow=0;" parent="1" vertex="1">
          <mxGeometry x="515" y="400" width="146" height="20" as="geometry" />
        </mxCell>
        <mxCell id="afA0k3A63ngMIBR7NG_--18" style="edgeStyle=orthogonalEdgeStyle;rounded=0;orthogonalLoop=1;jettySize=auto;html=1;" parent="1" source="afA0k3A63ngMIBR7NG_--19" target="afA0k3A63ngMIBR7NG_--6" edge="1">
          <mxGeometry relative="1" as="geometry" />
        </mxCell>
        <mxCell id="afA0k3A63ngMIBR7NG_--19" value="已创建" style="rounded=0;whiteSpace=wrap;html=1;" parent="1" vertex="1">
          <mxGeometry x="340" y="20" width="120" height="60" as="geometry" />
        </mxCell>
        <mxCell id="afA0k3A63ngMIBR7NG_--20" value="管理员开放预售活动" style="text;html=1;strokeColor=none;fillColor=none;align=center;verticalAlign=middle;whiteSpace=wrap;rounded=0;" parent="1" vertex="1">
          <mxGeometry x="414" y="100" width="146" height="20" as="geometry" />
        </mxCell>
        <mxCell id="afA0k3A63ngMIBR7NG_--21" value="&lt;font style=&quot;font-size: 14px&quot;&gt;&lt;span&gt;&lt;span&gt;&lt;span class=&quot;opblock-summary-path&quot;&gt;&lt;a class=&quot;nostyle&quot;&gt;&lt;span&gt;&lt;span&gt;&lt;span&gt;管理员新增SPU预售活动:POST:&lt;/span&gt;&lt;/span&gt;​/shops​/{shopId}​/spus​/{id}​/presales&lt;/span&gt;&lt;/a&gt;&lt;/span&gt;&lt;/span&gt;&lt;/span&gt;&lt;/font&gt;" style="text;html=1;strokeColor=none;fillColor=none;align=center;verticalAlign=middle;whiteSpace=wrap;rounded=0;shadow=0;" parent="1" vertex="1">
          <mxGeometry x="240" y="490" width="420" height="20" as="geometry" />
        </mxCell>
        <mxCell id="afA0k3A63ngMIBR7NG_--22" value="&lt;font style=&quot;font-size: 14px&quot;&gt;&lt;span&gt;&lt;span&gt;管理员修改SPU预售活动:PUT:&lt;/span&gt;&lt;/span&gt;/shops/{shopId}/presales/{id}&lt;/font&gt;" style="text;html=1;strokeColor=none;fillColor=none;align=center;verticalAlign=middle;whiteSpace=wrap;rounded=0;" parent="1" vertex="1">
          <mxGeometry x="240" y="520" width="380" height="20" as="geometry" />
        </mxCell>
        <mxCell id="afA0k3A63ngMIBR7NG_--23" value="&lt;font style=&quot;font-size: 14px&quot;&gt;管理员逻辑删除SPU预售活动:DELETE:/shops/{shopId}/presales/{id}&lt;/font&gt;" style="text;html=1;strokeColor=none;fillColor=none;align=center;verticalAlign=middle;whiteSpace=wrap;rounded=0;shadow=0;" parent="1" vertex="1">
          <mxGeometry x="240" y="550" width="430" height="20" as="geometry" />
        </mxCell>
      </root>
    </mxGraphModel>
  </diagram>
</mxfile>
